<svg aria-hidden="true" style="position: absolute; width: 0; height: 0; overflow: hidden;" version="1.1" xmlns="http://www.w3.org/2000/svg" xmlns:xlink="http://www.w3.org/1999/xlink">
<defs>
<symbol id="icon-facebook" viewBox="0 0 32 32">
<path d="M13.984 5.050c1.313-1.313 3.093-2.050 4.95-2.050h3.6c0.552 0 1 0.448 1 1v4.8c0 0.552-0.448 1-1 1h-3.6c-0.053 0-0.104 0.021-0.141 0.059s-0.059 0.088-0.059 0.141v2.6h3.8c0.308 0 0.599 0.142 0.788 0.385s0.257 0.559 0.182 0.858l-1.2 4.8c-0.111 0.445-0.511 0.757-0.97 0.757h-2.6v8.6c0 0.552-0.448 1-1 1h-4.8c-0.552 0-1-0.448-1-1v-8.6h-2.6c-0.552 0-1-0.448-1-1v-4.8c0-0.552 0.448-1 1-1h2.6v-2.6c0-1.857 0.738-3.637 2.050-4.95zM18.933 5c-1.326 0-2.598 0.527-3.536 1.464s-1.464 2.209-1.464 3.536v3.6c0 0.552-0.448 1-1 1h-2.6v2.8h2.6c0.552 0 1 0.448 1 1v8.6h2.8v-8.6c0-0.552 0.448-1 1-1h2.819l0.7-2.8h-3.519c-0.552 0-1-0.448-1-1v-3.6c0-0.583 0.232-1.143 0.644-1.556s0.972-0.644 1.556-0.644h2.6v-2.8h-2.6z"></path>
</symbol>
<symbol id="icon-instagram" viewBox="0 0 32 32">
<path d="M21.334 9.333c0-0.736 0.597-1.333 1.333-1.333s1.333 0.597 1.333 1.333c0 0.736-0.597 1.333-1.333 1.333s-1.333-0.597-1.333-1.333z"></path>
<path d="M16.001 9.667c-3.498 0-6.333 2.836-6.333 6.333s2.836 6.333 6.333 6.333c3.498 0 6.333-2.835 6.333-6.333s-2.836-6.333-6.333-6.333zM11.668 16c0-2.393 1.94-4.333 4.333-4.333s4.333 1.94 4.333 4.333c0 2.393-1.94 4.333-4.333 4.333s-4.333-1.94-4.333-4.333z"></path>
<path d="M23.012 3.777c-4.622-0.517-9.4-0.517-14.022 0-2.683 0.3-4.849 2.413-5.164 5.11-0.553 4.726-0.553 9.5 0 14.226 0.315 2.697 2.481 4.81 5.164 5.11 4.622 0.517 9.4 0.517 14.022 0 2.683-0.3 4.849-2.413 5.164-5.11 0.553-4.726 0.553-9.5 0-14.226-0.315-2.697-2.481-4.81-5.164-5.11zM9.212 5.765c4.474-0.5 9.103-0.5 13.578 0 1.773 0.198 3.194 1.598 3.4 3.355 0.535 4.571 0.535 9.189 0 13.761-0.205 1.757-1.626 3.156-3.4 3.355-4.474 0.5-9.103 0.5-13.578 0-1.773-0.198-3.194-1.598-3.4-3.355-0.535-4.571-0.535-9.189 0-13.761 0.205-1.757 1.626-3.156 3.4-3.355z"></path>
</symbol>
<symbol id="icon-pinterest" viewBox="0 0 32 32">
<path d="M16 3c-7.18 0-13 5.82-13 13s5.82 13 13 13c7.18 0 13-5.82 13-13s-5.82-13-13-13zM5 16c0-6.075 4.925-11 11-11s11 4.925 11 11c0 6.075-4.925 11-11 11-1.143 0-2.245-0.174-3.282-0.498 0.563-0.885 1.012-1.838 1.333-2.837l0.689-2.636c0.285 0.406 0.666 0.735 1.11 0.956s0.936 0.328 1.431 0.311c3.38 0 5.755-3.072 5.755-6.887 0-3.665-2.993-6.405-6.832-6.405-4.782 0-7.323 3.214-7.323 6.705 0 1.631 0.863 3.65 2.248 4.299 0.206 0.095 0.34 0 0.372-0.15s0.221-0.909 0.309-1.258c0.014-0.055 0.014-0.114-0-0.169s-0.041-0.106-0.079-0.148c-0.523-0.737-0.8-1.621-0.792-2.525-0.003-0.649 0.126-1.292 0.379-1.89s0.624-1.138 1.092-1.588 1.022-0.8 1.629-1.030c0.607-0.23 1.254-0.334 1.903-0.306 0.607-0.036 1.215 0.056 1.785 0.269s1.090 0.542 1.525 0.966 0.778 0.935 1.006 1.5c0.227 0.564 0.335 1.17 0.315 1.778 0 2.993-1.52 5.075-3.483 5.075-0.254 0.019-0.508-0.022-0.742-0.122s-0.44-0.255-0.602-0.451c-0.162-0.196-0.273-0.429-0.326-0.678s-0.045-0.507 0.024-0.752c0.113-0.467 0.261-0.948 0.406-1.417 0.263-0.85 0.513-1.66 0.513-2.273 0.027-0.199 0.011-0.401-0.047-0.594s-0.157-0.369-0.29-0.52-0.297-0.27-0.481-0.351c-0.184-0.081-0.383-0.121-0.584-0.118-1.108 0-2.003 1.156-2.003 2.692-0.008 0.543 0.094 1.081 0.301 1.583l-1.306 5.542c-0.16 1.047-0.16 2.113-0.001 3.16-0.867-0.343-1.681-0.794-2.424-1.335-1.303-0.952-2.391-2.183-3.178-3.617-0.31-0.564-0.568-1.151-0.773-1.753-0.374-1.107-0.577-2.293-0.577-3.526z"></path>
</symbol>
<symbol id="icon-telegram" viewBox="0 0 32 32">
<path d="M7.716 18.693l-4.237-1.427c-0.050-0.020-0.164-0.067-0.219-0.093-0.119-0.057-0.282-0.143-0.453-0.265-0.312-0.221-0.825-0.68-0.918-1.429-0.117-0.938 0.579-1.506 0.882-1.713 0.19-0.13 0.374-0.223 0.506-0.283 0.068-0.031 0.125-0.054 0.168-0.071 0.022-0.008 0.040-0.015 0.054-0.020l22.303-8.749c0.020-0.008 0.047-0.019 0.080-0.032 0.066-0.026 0.157-0.059 0.266-0.094 0.209-0.067 0.521-0.15 0.858-0.175 0.313-0.024 0.808-0.011 1.252 0.278 0.52 0.339 0.741 0.896 0.741 1.483 0 0.065-0.006 0.13-0.019 0.195l-3.974 20.034c-0.012 0.060-0.029 0.12-0.052 0.177l-0.001 0.002-0.001 0.002-0.002 0.005-0.005 0.011-0.013 0.029c-0.010 0.022-0.023 0.049-0.038 0.081-0.031 0.063-0.076 0.146-0.135 0.24-0.116 0.183-0.303 0.43-0.578 0.65-0.281 0.225-0.659 0.425-1.134 0.49s-0.983-0.015-1.506-0.243c-0.074-0.032-0.144-0.074-0.209-0.123l-4.353-3.337-3.774 2.354c-0.026 0.017-0.058 0.038-0.096 0.060-0.075 0.043-0.18 0.096-0.31 0.14-0.244 0.082-0.633 0.149-1.059-0.012-0.004-0.001-0.007-0.002-0.011-0.004-0.083-0.029-0.162-0.067-0.237-0.113-0.149-0.093-0.277-0.215-0.387-0.355-0.213-0.271-0.408-0.669-0.593-1.253-0.149-0.473-0.825-2.124-1.494-3.727-0.328-0.786-0.646-1.539-0.883-2.096-0.097-0.228-0.18-0.423-0.244-0.574-0.059-0.009-0.118-0.022-0.176-0.042zM26.567 6.49l-0.003 0.001c-0.011 0.005-0.022 0.009-0.033 0.014l-22.312 8.753c-0.012 0.005-0.023 0.009-0.035 0.013l-0.012 0.005c-0.014 0.006-0.038 0.015-0.068 0.029-0.017 0.008-0.035 0.016-0.053 0.025 0.025 0.014 0.049 0.026 0.070 0.036s0.036 0.016 0.045 0.020l4.19 1.411c0.077 0.026 0.148 0.060 0.214 0.101l13.849-8.107c0.010-0.006 0.023-0.014 0.039-0.023 0.031-0.018 0.075-0.041 0.126-0.068 0.096-0.049 0.25-0.121 0.423-0.175 0.121-0.037 0.476-0.142 0.86-0.019 0.237 0.076 0.483 0.24 0.642 0.516 0.079 0.138 0.122 0.276 0.142 0.402 0.054 0.199 0.046 0.396 0.003 0.566-0.092 0.366-0.349 0.652-0.583 0.87-0.2 0.187-2.794 2.688-5.353 5.157-1.276 1.231-2.539 2.45-3.483 3.362l-0.62 0.599 7.829 6.002c0.179 0.064 0.286 0.061 0.335 0.054 0.059-0.008 0.106-0.031 0.155-0.070 0.055-0.044 0.103-0.103 0.138-0.159l0.001-0.002 3.854-19.431c-0.057 0.014-0.115 0.030-0.171 0.048-0.063 0.020-0.115 0.039-0.15 0.053-0.017 0.007-0.029 0.012-0.036 0.014l-0.002 0.001zM15.285 23.016l-1.562-1.198-0.379 2.408 1.941-1.21zM12.29 19.442l1.553-1.5c0.944-0.911 2.207-2.131 3.483-3.362l1.297-1.251-8.693 5.089 0.047 0.11c0.237 0.559 0.556 1.315 0.887 2.105 0.247 0.591 0.505 1.212 0.74 1.788l0.377-2.401c0.036-0.231 0.149-0.432 0.309-0.579z"></path>
</symbol>
<symbol id="icon-twitter" viewBox="0 0 32 32">
<path d="M20.029 4.458c0.678-0.116 1.437-0.155 2.151-0.034 1.276 0.216 2.454 0.809 3.386 1.698 0.609 0.014 1.207-0.106 1.737-0.277 0.448-0.145 0.827-0.319 1.092-0.458 0.132-0.069 0.234-0.127 0.3-0.167 0.033-0.020 0.057-0.035 0.071-0.044l0.013-0.008c0.396-0.264 0.923-0.212 1.26 0.123s0.391 0.862 0.13 1.259c-0.277 0.42-0.661 1.17-1.092 2.009-0.068 0.132-0.137 0.266-0.206 0.402-0.247 0.48-0.5 0.965-0.737 1.381-0.148 0.261-0.307 0.527-0.467 0.756v0.365c0.010 1.341-0.144 2.675-0.456 3.972-0.196 0.816-0.455 1.619-0.776 2.399-0.83 2.022-2.054 3.859-3.602 5.403s-3.387 2.763-5.412 3.588c-2.023 0.824-4.189 1.237-6.373 1.215-3.166 0.003-6.265-0.909-8.925-2.627-0.392-0.253-0.557-0.743-0.398-1.181s0.6-0.708 1.063-0.651c0.4 0.050 0.804 0.074 1.207 0.073 1.45-0.004 2.872-0.324 4.171-0.928-0.413-0.188-0.807-0.42-1.175-0.693-1.082-0.803-1.888-1.923-2.304-3.204-0.108-0.333-0.034-0.698 0.195-0.963 0.004-0.005 0.008-0.009 0.012-0.014-0.245-0.218-0.474-0.456-0.684-0.711-0.948-1.15-1.471-2.591-1.478-4.082l-0-0.005v-0.067c0-0.354 0.188-0.682 0.493-0.862 0.077-0.046 0.16-0.080 0.244-0.103-0.451-0.9-0.686-1.894-0.684-2.902-0.001-1.142 0.298-2.265 0.866-3.256 0.164-0.286 0.458-0.473 0.787-0.5s0.649 0.111 0.857 0.367c1.283 1.581 2.885 2.875 4.701 3.797 0.934 0.474 1.913 0.844 2.921 1.106 0.565 0.147 1.139 0.26 1.719 0.338-0.026-0.964 0.165-1.928 0.565-2.819 0.586-1.306 1.589-2.381 2.852-3.056 0.535-0.286 1.245-0.513 1.975-0.638zM4.991 14.521c0.173 0.487 0.43 0.943 0.763 1.347 0.655 0.794 1.564 1.337 2.574 1.538 0.45 0.089 0.781 0.473 0.804 0.931s-0.269 0.873-0.708 1.006c-0.363 0.111-0.736 0.188-1.112 0.23 0.249 0.321 0.541 0.608 0.871 0.853 0.748 0.555 1.651 0.863 2.582 0.881 0.423 0.008 0.794 0.281 0.929 0.682s0.002 0.843-0.33 1.104c-1.399 1.101-3.017 1.868-4.731 2.26 1.421 0.455 2.911 0.689 4.418 0.687h0.012c1.92 0.020 3.825-0.343 5.603-1.067s3.394-1.796 4.754-3.152c1.36-1.356 2.435-2.969 3.164-4.746 0.281-0.686 0.509-1.39 0.681-2.107 0.274-1.141 0.409-2.314 0.4-3.493v-0.714c0-0.242 0.088-0.477 0.248-0.659 0.092-0.105 0.254-0.349 0.479-0.746 0.214-0.377 0.451-0.831 0.698-1.31 0.015-0.029 0.030-0.058 0.045-0.087-0.639 0.139-1.364 0.212-2.124 0.13-0.241-0.026-0.464-0.138-0.628-0.316-0.671-0.727-1.563-1.211-2.539-1.376-0.433-0.073-0.956-0.056-1.48 0.033-0.569 0.098-1.065 0.268-1.37 0.431-0.872 0.466-1.565 1.209-1.97 2.111s-0.499 1.914-0.267 2.875c0.074 0.307-0.001 0.63-0.202 0.873s-0.505 0.376-0.82 0.36c-1.125-0.057-2.237-0.228-3.321-0.51-1.147-0.298-2.261-0.719-3.323-1.258-1.564-0.794-2.988-1.83-4.221-3.067-0.056 0.287-0.085 0.581-0.085 0.876v0.003c-0.001 0.734 0.179 1.458 0.525 2.105s0.846 1.2 1.457 1.608c0.371 0.247 0.533 0.71 0.398 1.135s-0.535 0.709-0.98 0.697c-0.403-0.011-0.804-0.060-1.195-0.146z"></path>
</symbol>
</defs>
</svg>
