<svg aria-hidden="true" style="position: absolute; width: 0; height: 0; overflow: hidden;" version="1.1" xmlns="http://www.w3.org/2000/svg" xmlns:xlink="http://www.w3.org/1999/xlink">
<defs>
<symbol id="icon-pin_drop" viewBox="0 0 32 32">
<path d="M16 21.728c2.112-1.707 3.707-3.349 4.785-4.928s1.615-3.061 1.615-4.448c0-1.195-0.218-2.214-0.655-3.057s-0.977-1.525-1.617-2.048c-0.64-0.522-1.333-0.901-2.080-1.135s-1.429-0.352-2.048-0.352c-0.619 0-1.301 0.117-2.048 0.352s-1.44 0.613-2.080 1.135c-0.64 0.523-1.178 1.206-1.615 2.048s-0.657 1.862-0.657 3.057c0 1.387 0.538 2.869 1.615 4.448s2.673 3.221 4.785 4.928zM16 24.96c-3.008-2.219-5.254-4.373-6.737-6.464s-2.223-4.139-2.223-6.144c0-1.515 0.272-2.843 0.817-3.985s1.242-2.095 2.095-2.863 1.813-1.344 2.88-1.728c1.067-0.384 2.123-0.576 3.168-0.576s2.101 0.192 3.168 0.576c1.067 0.384 2.027 0.96 2.88 1.728s1.552 1.722 2.097 2.863c0.544 1.142 0.815 2.47 0.815 3.985 0 2.005-0.741 4.053-2.225 6.144s-3.727 4.245-6.735 6.464zM16 14.72c0.704 0 1.307-0.251 1.809-0.753s0.751-1.103 0.751-1.807-0.25-1.307-0.751-1.809c-0.502-0.501-1.105-0.751-1.809-0.751s-1.306 0.25-1.807 0.751c-0.502 0.502-0.753 1.105-0.753 1.809s0.251 1.306 0.753 1.807c0.501 0.502 1.103 0.753 1.807 0.753zM7.040 28.8v-2.56h17.92v2.56h-17.92z"></path>
</symbol>
<symbol id="icon-call" viewBox="0 0 32 32">
<path d="M26.6 28c-2.867 0-5.661-0.639-8.383-1.917s-5.134-2.966-7.233-5.067c-2.1-2.1-3.789-4.511-5.067-7.233s-1.917-5.516-1.917-8.383c0-0.4 0.133-0.733 0.4-1s0.6-0.4 1-0.4h5.4c0.311 0 0.589 0.1 0.833 0.3s0.389 0.456 0.433 0.767l0.867 4.667c0.044 0.311 0.039 0.594-0.016 0.849s-0.184 0.484-0.384 0.684l-3.233 3.267c0.933 1.6 2.106 3.1 3.517 4.5s2.96 2.611 4.649 3.633l3.133-3.133c0.2-0.2 0.461-0.35 0.784-0.451s0.638-0.127 0.949-0.083l4.6 0.933c0.311 0.067 0.567 0.216 0.767 0.449s0.3 0.506 0.3 0.817v5.4c0 0.4-0.133 0.733-0.4 1s-0.6 0.4-1 0.4zM8.033 12l2.2-2.2-0.567-3.133h-2.967c0.111 0.911 0.267 1.811 0.467 2.7s0.489 1.767 0.867 2.633zM19.967 23.933c0.867 0.378 1.75 0.678 2.651 0.9s1.805 0.367 2.716 0.433v-2.933l-3.133-0.633-2.233 2.233z"></path>
</symbol>
<symbol id="icon-arrow-right" viewBox="0 0 32 32">
<path d="M20.186 8l-1.944 2.005 4.425 4.662h-18.667v2.667h18.667l-4.397 4.671 1.953 1.995 7.777-8.019-7.814-7.981z"></path>
</symbol>
<symbol id="icon-arrow-left" viewBox="0 0 32 32">
<path d="M28 14.667v2.667h-18.667l4.855 4.667-2.038 2-8.151-8 8.151-8 2.038 2-4.855 4.667h18.667z"></path>
</symbol>
</defs>
</svg>
